# xmcd
#
# Track frame offsets:
#	150
#	18111
#	35301
#	51189
#	80523
#
# Disc length: 1145 seconds
#
# Revision: 0
# Processed by: cddbd v1.5.2PL0 Copyright (c) Steve Scherf et al.
# Submitted via: EZCDAudioConverter 1.0.2.1
#
DISCID=2f047705
DTITLE=Eddy Gee - I Need You
DYEAR=1900
DGENRE=
TTITLE0=Eddy Gee - I Need You
TTITLE1=Eddy Gee - Queen Of The Waltz
TTITLE2=Eddy Gee - Since You Sat At My Side
TTITLE3=Eddy Gee - Little Girl
TTITLE4=Data Track
EXTD=
EXTT0=
EXTT1=
EXTT2=
EXTT3=
EXTT4=
PLAYORDER=
